<mxfile host="65bd71144e">
    <diagram id="qeHGFrumla0ssw5fb1O3" name="Page-1">
        <mxGraphModel dx="1002" dy="571" grid="1" gridSize="10" guides="1" tooltips="1" connect="1" arrows="1" fold="1" page="1" pageScale="1" pageWidth="850" pageHeight="1100" math="0" shadow="0">
            <root>
                <mxCell id="0"/>
                <mxCell id="1" parent="0"/>
                <mxCell id="2" value="" style="shape=table;startSize=0;container=1;collapsible=0;childLayout=tableLayout;shadow=1;" vertex="1" parent="1">
                    <mxGeometry x="85" y="80" width="680" height="680" as="geometry"/>
                </mxCell>
                <mxCell id="3" value="" style="shape=tableRow;horizontal=0;startSize=0;swimlaneHead=0;swimlaneBody=0;top=0;left=0;bottom=0;right=0;collapsible=0;dropTarget=0;fillColor=none;points=[[0,0.5],[1,0.5]];portConstraint=eastwest;" vertex="1" parent="2">
                    <mxGeometry width="680" height="680" as="geometry"/>
                </mxCell>
                <mxCell id="4" value="" style="shape=partialRectangle;html=1;whiteSpace=wrap;connectable=0;overflow=hidden;fillColor=none;top=0;left=0;bottom=0;right=0;pointerEvents=1;" vertex="1" parent="3">
                    <mxGeometry width="680" height="680" as="geometry">
                        <mxRectangle width="680" height="680" as="alternateBounds"/>
                    </mxGeometry>
                </mxCell>
                <mxCell id="12" value="Character Vault" style="rounded=0;whiteSpace=wrap;html=1;shadow=1;" vertex="1" parent="1">
                    <mxGeometry x="200" y="90" width="430" height="80" as="geometry"/>
                </mxCell>
                <mxCell id="13" value="Login" style="whiteSpace=wrap;html=1;aspect=fixed;shadow=1;" vertex="1" parent="1">
                    <mxGeometry x="310" y="240" width="210" height="210" as="geometry"/>
                </mxCell>
                <mxCell id="14" value="Don't have an account? Sign Up" style="rounded=0;whiteSpace=wrap;html=1;shadow=1;" vertex="1" parent="1">
                    <mxGeometry x="310" y="480" width="210" height="60" as="geometry"/>
                </mxCell>
                <mxCell id="15" value="" style="whiteSpace=wrap;html=1;aspect=fixed;shadow=1;" vertex="1" parent="1">
                    <mxGeometry x="85" y="800" width="670" height="670" as="geometry"/>
                </mxCell>
                <mxCell id="17" value="Character list" style="rounded=0;whiteSpace=wrap;html=1;shadow=1;" vertex="1" parent="1">
                    <mxGeometry x="110" y="870" width="200" height="560" as="geometry"/>
                </mxCell>
                <mxCell id="18" value="Create new character" style="rounded=0;whiteSpace=wrap;html=1;shadow=1;" vertex="1" parent="1">
                    <mxGeometry x="130" y="890" width="160" height="60" as="geometry"/>
                </mxCell>
                <mxCell id="20" value="Character info" style="rounded=0;whiteSpace=wrap;html=1;shadow=1;" vertex="1" parent="1">
                    <mxGeometry x="370" y="870" width="320" height="560" as="geometry"/>
                </mxCell>
                <mxCell id="21" value="" style="rounded=0;whiteSpace=wrap;html=1;shadow=1;" vertex="1" parent="1">
                    <mxGeometry x="630" y="800" width="120" height="60" as="geometry"/>
                </mxCell>
            </root>
        </mxGraphModel>
    </diagram>
</mxfile>